<svg width="25" height="25" viewBox="0 0 25 25" fill="none" xmlns="http://www.w3.org/2000/svg">
<g clip-path="url(#clip0_268_862)">
<path d="M21.875 22.1875C21.875 21.25 25 19.375 25 17.3438C25 15 22.8125 13.125 20.1562 12.3437C21.25 11.0937 21.875 9.6875 21.875 7.96875C21.875 3.59375 17.3438 0 11.5625 0C6.09375 0 0 3.28125 0 7.96875C0 11.25 2.5 13.5937 3.59375 14.5312C3.4375 16.4062 2.65625 17.1875 2.65625 17.1875L0.78125 18.75H3.125C5.625 18.75 7.65625 17.9687 8.90625 17.0312V17.3438C8.90625 20.4687 12.3438 22.9687 16.7188 22.9687H17.6562C18.2812 23.75 20.3125 25.1562 22.9688 25.1562C23.125 25 21.875 24.375 21.875 22.1875ZM11.5625 1.5625C16.4062 1.5625 20.3125 4.53125 20.3125 7.96875C20.3125 11.4062 16.25 14.375 11.25 14.375H9.53125L9.375 14.6875C8.90625 15.3125 7.03125 16.5625 4.53125 17.0312C4.6875 16.4062 4.6875 15.4687 4.6875 14.2187V13.75C3.125 12.5 1.40625 10.3125 1.40625 8.125C1.40625 4.6875 6.40625 1.5625 11.5625 1.5625Z" fill="#6D9773"/>
</g>
<defs>
<clipPath id="clip0_268_862">
<rect width="25" height="25" fill="white"/>
</clipPath>
</defs>
</svg>
