<svg width="26" height="26" viewBox="0 0 26 26" fill="none" xmlns="http://www.w3.org/2000/svg">
<path d="M26 24.3492V10.3175C26 10.0612 25.9413 9.80842 25.8284 9.5792C25.7156 9.34998 25.5518 9.15059 25.35 8.99683L13.975 0.330158C13.6937 0.115849 13.3516 0 13 0C12.6484 0 12.3063 0.115849 12.025 0.330158L0.65 8.99683C0.448182 9.15059 0.284376 9.34998 0.171556 9.5792C0.0587356 9.80842 0 10.0612 0 10.3175V24.3492C0 24.787 0.171205 25.2069 0.475952 25.5165C0.780698 25.8261 1.19402 26 1.625 26H8.125C8.55598 26 8.9693 25.8261 9.27405 25.5165C9.57879 25.2069 9.75 24.787 9.75 24.3492V19.3968C9.75 18.959 9.92121 18.5391 10.226 18.2295C10.5307 17.92 10.944 17.746 11.375 17.746H14.625C15.056 17.746 15.4693 17.92 15.774 18.2295C16.0788 18.5391 16.25 18.959 16.25 19.3968V24.3492C16.25 24.787 16.4212 25.2069 16.726 25.5165C17.0307 25.8261 17.444 26 17.875 26H24.375C24.806 26 25.2193 25.8261 25.5241 25.5165C25.8288 25.2069 26 24.787 26 24.3492Z" fill="#6D9773"/>
</svg>
