<svg width="30" height="30" viewBox="0 0 30 30" fill="none" xmlns="http://www.w3.org/2000/svg">
<g clip-path="url(#clip0_268_871)">
<path fill-rule="evenodd" clip-rule="evenodd" d="M14.7554 29.998L15 30C14.6688 29.9999 14.3377 29.9892 14.0073 29.9677C13.5984 29.9409 13.1907 29.8975 12.7853 29.8376C12.3143 29.7678 11.8469 29.6757 11.3847 29.5614C10.9291 29.4486 10.4791 29.3144 10.0361 29.1592L10.0337 29.1583C9.30422 28.9024 8.5958 28.5903 7.91479 28.2245C7.43146 27.965 6.96276 27.6792 6.51079 27.3683C6.00254 27.0188 5.51625 26.6384 5.05469 26.2292C4.89342 26.0863 4.73523 25.9399 4.58022 25.7903C1.75612 23.0624 0 19.2363 0 15C0 6.71575 6.71575 1.6481e-10 15 1.6481e-10C16.9698 -9.23342e-06 18.9203 0.387969 20.7402 1.14178C22.5601 1.8956 24.2137 3.00049 25.6066 4.39336C26.9995 5.78624 28.1044 7.43983 28.8582 9.25971C29.612 11.0796 30 13.0301 30 15C30 19.2364 28.2437 23.0627 25.4196 25.7904C25.4195 25.7906 25.4195 25.7909 25.4196 25.7912C24.7091 26.477 23.933 27.0914 23.1025 27.6255L23.0909 27.6329C22.9026 27.7539 22.7115 27.8706 22.5178 27.9829L22.4974 27.9948C22.1586 28.1906 21.8123 28.3731 21.4593 28.5419C21.3211 28.6077 21.182 28.6716 21.042 28.7334C20.8959 28.7976 20.7489 28.8596 20.601 28.9194C20.4575 28.977 20.3133 29.0325 20.1682 29.0859C20.0216 29.1395 19.8741 29.191 19.7259 29.2403C19.5803 29.2885 19.4339 29.3346 19.2868 29.3784C19.1311 29.4247 18.9745 29.4686 18.8174 29.5099C18.6644 29.55 18.5108 29.5877 18.3567 29.623C18.2029 29.6581 18.0486 29.6908 17.8937 29.7211C17.2627 29.8444 16.6244 29.927 15.9827 29.9683C15.8232 29.9786 15.6636 29.9864 15.5039 29.9917L15.5008 29.9918C15.2524 29.9999 15.0039 30.002 14.7554 29.998ZM16.5 21H13.5C11.1106 21 9.02081 22.406 8.06013 24.4619L7.95149 24.711L8.0455 24.7805C9.75522 25.9983 11.7979 26.7791 14.0104 26.9598C14.0764 26.9651 14.1426 26.97 14.2089 26.9743L14.0195 26.9605C14.084 26.9657 14.1486 26.9704 14.2133 26.9746L14.2089 26.9743C14.2731 26.9785 14.3373 26.9822 14.4016 26.9854L14.2133 26.9746C14.2801 26.979 14.3471 26.9827 14.4143 26.9859L14.4016 26.9854C14.4498 26.9877 14.4981 26.9898 14.5463 26.9915L15 27L15.188 26.9986C15.2572 26.9975 15.3263 26.9959 15.3955 26.9936L15.2056 26.9982C15.2696 26.9972 15.3335 26.9956 15.3972 26.9935L15.3955 26.9936C15.4597 26.9915 15.5239 26.9889 15.588 26.9858L15.3972 26.9935C15.4633 26.9913 15.5294 26.9887 15.5954 26.9854L15.588 26.9858C15.6547 26.9826 15.7213 26.9788 15.7877 26.9746L15.5954 26.9854C15.6605 26.9823 15.7254 26.9786 15.7902 26.9744L15.7877 26.9745C15.8527 26.9703 15.9175 26.9656 15.9822 26.9604L15.7901 26.9744C15.8562 26.9701 15.9223 26.9652 15.9882 26.9599L15.9822 26.9604C16.045 26.9552 16.1077 26.9497 16.1702 26.9437L15.9882 26.9599C16.0538 26.9546 16.1193 26.9486 16.1847 26.9423L16.1702 26.9437C18.3089 26.7367 20.2832 25.9683 21.9442 24.7877L22.047 24.711L21.9399 24.4622C21.0213 22.4957 19.0693 21.1235 16.8099 21.0079L16.5 21ZM15 3.00002C8.37259 3.00002 3.00002 8.37259 3.00002 15C3.00002 17.862 4.0019 20.49 5.67407 22.5522C7.22292 19.8331 10.1474 18 13.5 18H16.5C19.8527 18 22.7772 19.8332 24.3258 22.552C25.998 20.49 27 17.862 27 15C27 8.37259 21.6274 3.00002 15 3.00002ZM15 4.5C18.3137 4.5 21 7.18628 21 10.5C21 13.7132 18.474 16.3366 15.2994 16.4927L15 16.5C11.6863 16.5 8.99999 13.8137 8.99999 10.5C8.99999 7.28669 11.526 4.66333 14.7005 4.50731L15 4.5ZM15 7.50002C13.3431 7.50002 12 8.84313 12 10.5C12 12.1568 13.3431 13.5 15 13.5C16.6568 13.5 18 12.1568 18 10.5C18 8.84313 16.6568 7.50002 15 7.50002Z" fill="#BB8A52"/>
</g>
<defs>
<clipPath id="clip0_268_871">
<rect width="30" height="30" fill="white"/>
</clipPath>
</defs>
</svg>
