<svg width="25" height="25" viewBox="0 0 25 25" fill="none" xmlns="http://www.w3.org/2000/svg">
<g clip-path="url(#clip0_268_859)">
<path d="M13.2568 1.11084L3.43018 10.9375H15.625V22.6562C15.625 22.9818 15.564 23.2869 15.4419 23.5718C15.3198 23.8566 15.153 24.1048 14.9414 24.3164C14.7298 24.528 14.4816 24.6948 14.1968 24.8169C13.9119 24.939 13.6068 25 13.2812 25H3.90625C3.58073 25 3.27555 24.939 2.99072 24.8169C2.70589 24.6948 2.45768 24.528 2.24609 24.3164C2.03451 24.1048 1.86768 23.8566 1.74561 23.5718C1.62354 23.2869 1.5625 22.9818 1.5625 22.6562V12.8052L1.11084 13.2568L0 12.1582L3.32031 8.83789L2.20947 7.73926C2.06299 7.59277 1.95312 7.42594 1.87988 7.23877C1.80664 7.0516 1.76595 6.84814 1.75781 6.62842C1.75781 6.21338 1.90837 5.84717 2.20947 5.52979L5.51758 2.20947C5.66406 2.06299 5.83089 1.95312 6.01807 1.87988C6.20524 1.80664 6.40869 1.76595 6.62842 1.75781C6.84001 1.75781 7.03939 1.79443 7.22656 1.86768C7.41374 1.94092 7.58464 2.05485 7.73926 2.20947L8.83789 3.32031L12.1582 0L13.2568 1.11084ZM14.0625 22.6562V12.5H3.125V22.6562C3.125 22.8678 3.20231 23.0509 3.35693 23.2056C3.51156 23.3602 3.69466 23.4375 3.90625 23.4375H13.2812C13.4928 23.4375 13.6759 23.3602 13.8306 23.2056C13.9852 23.0509 14.0625 22.8678 14.0625 22.6562ZM6.62842 3.32031L3.32031 6.62842L4.41895 7.73926L7.73926 4.41895L6.62842 3.32031ZM23.4375 3.125H25V9.375H18.75V7.8125H22.3145C21.6878 7.32422 21.0083 6.95394 20.2759 6.70166C19.5435 6.44938 18.7785 6.32324 17.981 6.32324C17.0451 6.32324 16.154 6.49821 15.3076 6.84814C14.4613 7.19808 13.7085 7.70264 13.0493 8.36182L11.9507 7.26318C12.7645 6.44938 13.6841 5.83089 14.7095 5.40771C15.7349 4.98454 16.8254 4.76888 17.981 4.76074C18.9819 4.76074 19.9504 4.92757 20.8862 5.26123C21.8221 5.59489 22.6725 6.0791 23.4375 6.71387V3.125ZM12.5 14.0625V21.875H10.9375V14.0625H12.5ZM9.375 14.0625V21.875H7.8125V14.0625H9.375ZM6.25 14.0625V21.875H4.6875V14.0625H6.25Z" fill="#6D9773"/>
</g>
<defs>
<clipPath id="clip0_268_859">
<rect width="25" height="25" fill="white"/>
</clipPath>
</defs>
</svg>
