<svg width="40" height="40" viewBox="0 0 40 40" fill="none" xmlns="http://www.w3.org/2000/svg">
<path d="M6.85443 13.4272V10.1408C6.85443 9.26921 7.20067 8.43331 7.81699 7.81699C8.43331 7.20067 9.26921 6.85443 10.1408 6.85443H13.4272M6.85443 26.5727V29.8591C6.85443 30.7307 7.20067 31.5666 7.81699 32.183C8.43331 32.7993 9.26921 33.1455 10.1408 33.1455H13.4272M26.5727 6.85443H29.8591C30.7307 6.85443 31.5666 7.20067 32.183 7.81699C32.7993 8.43331 33.1455 9.26921 33.1455 10.1408V13.4272M26.5727 33.1455H29.8591C30.7307 33.1455 31.5666 32.7993 32.183 32.183C32.7993 31.5666 33.1455 30.7307 33.1455 29.8591V26.5727M11.784 20H28.2159" stroke="#F1FCE4" stroke-width="2" stroke-linecap="round" stroke-linejoin="round"/>
</svg>
